<svg width="12" height="12" viewBox="0 0 12 12" fill="none" xmlns="http://www.w3.org/2000/svg">
<path d="M10.7769 11.25L7.78065 3.45985L2.98671 8.25379L10.7769 11.25Z" stroke="#989898" stroke-miterlimit="10" stroke-linecap="round" stroke-linejoin="round"/>
<path d="M9.77808 8.65325L8.18011 10.2512" stroke="#989898" stroke-miterlimit="10" stroke-linecap="round" stroke-linejoin="round"/>
<path d="M9.11237 6.92214L6.44906 9.58545" stroke="#989898" stroke-miterlimit="10" stroke-linecap="round" stroke-linejoin="round"/>
<path d="M8.44641 5.19106L4.71779 8.91968" stroke="#989898" stroke-miterlimit="10" stroke-linecap="round" stroke-linejoin="round"/>
<path d="M2.7807 5.6499C1.5822 4.45143 0.982946 5.05067 0.982946 5.05067" stroke="#989898" stroke-miterlimit="10" stroke-linecap="round" stroke-linejoin="round"/>
<path d="M5.17761 3.25293C3.97914 2.05446 4.57838 1.4552 4.57838 1.4552" stroke="#989898" stroke-miterlimit="10" stroke-linecap="round" stroke-linejoin="round"/>
<path d="M0.776791 1.25012L2.57452 3.04785" stroke="#989898" stroke-miterlimit="10" stroke-linecap="round" stroke-linejoin="round"/>
<path d="M3.67954 4.75113C3.84503 4.91662 4.11331 4.91662 4.27878 4.75113C4.44426 4.58564 4.44426 4.31736 4.27878 4.15189C4.11331 3.9864 3.84503 3.9864 3.67954 4.15189C3.51405 4.31736 3.51405 4.58564 3.67954 4.75113Z" fill="#989898"/>
<path d="M6.07657 2.35416C6.24206 2.51964 6.51035 2.51964 6.67581 2.35416C6.8413 2.18867 6.8413 1.92038 6.67581 1.75492C6.51035 1.58943 6.24206 1.58943 6.07657 1.75492C5.91109 1.92038 5.91109 2.18867 6.07657 2.35416Z" fill="#989898"/>
<path d="M1.28251 7.1481C1.44799 7.31359 1.71628 7.31359 1.88174 7.1481C2.04723 6.98264 2.04723 6.71433 1.88174 6.54886C1.71628 6.38338 1.44799 6.38338 1.28251 6.54886C1.11702 6.71433 1.11702 6.98264 1.28251 7.1481Z" fill="#989898"/>
</svg>
