<svg width="22" height="20" viewBox="0 0 22 20" fill="none" xmlns="http://www.w3.org/2000/svg">
<path d="M14.553 12.1319L15.1712 12.75C15.8087 13.3875 15.8087 14.4212 15.1712 15.0588L11.7081 18.5219C11.0705 19.1594 10.0369 19.1594 9.39937 18.5219L7.52654 16.649C6.91422 16.0367 6.08376 15.6927 5.21779 15.6927H2.63252C1.73092 15.6927 1 14.9618 1 14.0602V9.16262C1 8.26101 1.73092 7.53009 2.63252 7.53009H3.71521C4.48858 7.53009 5.2335 7.23865 5.80154 6.71383C6.36957 6.18902 7.11449 5.89757 7.88786 5.89757" stroke="black" stroke-width="1.5" stroke-miterlimit="10" stroke-linecap="round" stroke-linejoin="round"/>
<path d="M14.5372 15.6926H18.6312C19.5328 15.6926 20.2638 14.9617 20.2638 14.0601V9.16253C20.2638 8.26093 19.5328 7.53001 18.6312 7.53001H16.6726C15.8961 7.53001 15.2018 7.15763 14.6288 6.63343C13.521 5.62 11.8009 5.64942 10.7286 6.72166L7.75724 9.69302C7.11974 10.3306 7.11974 11.3642 7.75724 12.0017L7.75728 12.0018C8.39482 12.6393 9.42845 12.6393 10.066 12.0017L12.2445 9.82326" stroke="black" stroke-width="1.5" stroke-miterlimit="10" stroke-linecap="round" stroke-linejoin="round"/>
<path d="M7.28174 1.59067L7.8401 3.12476" stroke="black" stroke-width="1.5" stroke-miterlimit="10" stroke-linecap="round" stroke-linejoin="round"/>
<path d="M13.982 1.59067L13.4236 3.12476" stroke="black" stroke-width="1.5" stroke-miterlimit="10" stroke-linecap="round" stroke-linejoin="round"/>
<path d="M10.6319 1.00004V2.63257" stroke="black" stroke-width="1.5" stroke-miterlimit="10" stroke-linecap="round" stroke-linejoin="round"/>
</svg>
