<svg width="12" height="12" viewBox="0 0 12 12" fill="none" xmlns="http://www.w3.org/2000/svg">
<path d="M3.93059 10.6923L3.67947 10.2599L3.93059 10.6923ZM3.51734 10.3797L3.02112 10.3183V10.3183L3.51734 10.3797ZM3.19021 8.63115L2.75354 8.87476L2.75656 8.88003L3.19021 8.63115ZM2.69636 7.74592L3.13304 7.5023L3.13001 7.49703L2.69636 7.74592ZM10.4675 6.89565L10.7186 7.32802L10.4675 6.89565ZM10.4114 6.38507L10.6162 5.92895L10.6162 5.92895L10.4114 6.38507ZM9.08466 5.20766L8.64782 5.451L8.651 5.45654L9.08466 5.20766ZM8.6158 4.36599L9.05264 4.12265L9.04946 4.1171L8.6158 4.36599ZM3.92484 3.0895L4.17596 3.52186L3.92484 3.0895ZM7.02379 10.651L7.27491 11.0834L7.02379 10.651ZM0.120952 5.68923C0.159895 5.96261 0.413084 6.15266 0.686467 6.11372C0.95985 6.07478 1.1499 5.82159 1.11096 5.54821L0.615955 5.61872L0.120952 5.68923ZM1.46367 3.76078C1.6081 3.52542 1.5344 3.21754 1.29904 3.07311C1.06368 2.92867 0.7558 3.00238 0.611365 3.23774L1.03752 3.49926L1.46367 3.76078ZM5.54398 0.381556C5.26788 0.386794 5.04831 0.614858 5.05355 0.890951C5.05879 1.16704 5.28685 1.38661 5.56294 1.38138L5.55346 0.881466L5.54398 0.381556ZM7.2789 1.95022C7.49371 2.12376 7.80852 2.0903 7.98205 1.8755C8.15559 1.6607 8.12213 1.34589 7.90733 1.17235L7.59312 1.56129L7.2789 1.95022ZM3.51734 10.3797L4.01356 10.4411C4.08352 9.87529 4.04123 9.10946 3.62387 8.38226L3.19021 8.63115L2.75656 8.88003C3.03554 9.36613 3.07318 9.89728 3.02112 10.3183L3.51734 10.3797ZM3.19021 8.63115L3.62686 8.38755L3.133 7.50232L2.69636 7.74592L2.25971 7.98952L2.75357 8.87475L3.19021 8.63115ZM10.4114 6.38507L10.6162 5.92895C10.2386 5.75938 9.80252 5.45397 9.51831 4.95877L9.08466 5.20766L8.651 5.45654C9.06792 6.18298 9.69438 6.61118 10.2065 6.84118L10.4114 6.38507ZM9.08466 5.20766L9.52146 4.96433L9.0526 4.12267L8.6158 4.36599L8.179 4.60931L8.64786 5.45098L9.08466 5.20766ZM8.6158 4.36599L9.04946 4.1171C7.96219 2.22265 5.55616 1.56381 3.67372 2.65713L3.92484 3.0895L4.17596 3.52186C5.57273 2.71062 7.36713 3.19479 8.18215 4.61487L8.6158 4.36599ZM10.4675 6.89565L10.7186 7.32802C11.0367 7.14326 11.1043 6.80392 11.0759 6.57224C11.0475 6.34109 10.9101 6.06097 10.6162 5.92895L10.4114 6.38507L10.2065 6.84118C10.1047 6.79544 10.0862 6.71786 10.0833 6.69407C10.0803 6.66974 10.0799 6.54256 10.2164 6.46329L10.4675 6.89565ZM2.69636 7.74592L3.13001 7.49703C2.32783 6.09931 2.80119 4.32033 4.17596 3.52186L3.92484 3.0895L3.67372 2.65713C1.81687 3.73559 1.19022 6.12611 2.2627 7.9948L2.69636 7.74592ZM3.93059 10.6923L3.67947 10.2599C3.82037 10.1781 3.9334 10.2466 3.95178 10.2609C3.97005 10.275 4.02726 10.3302 4.01356 10.4411L3.51734 10.3797L3.02112 10.3183C2.98112 10.6418 3.153 10.9067 3.33849 11.0507C3.52409 11.1948 3.85689 11.3133 4.1817 11.1247L3.93059 10.6923ZM10.4675 6.89565L10.2164 6.46329L3.67947 10.2599L3.93059 10.6923L4.1817 11.1247L10.7186 7.32802L10.4675 6.89565ZM7.66412 8.52385L7.23046 8.77274C7.49669 9.2366 7.33094 9.89443 6.77267 10.2187L7.02379 10.651L7.27491 11.0834C8.25848 10.5121 8.6661 9.26522 8.09777 8.27497L7.66412 8.52385ZM7.02379 10.651L6.77267 10.2187C6.21576 10.5421 5.57103 10.3581 5.30603 9.89641L4.87238 10.1453L4.43872 10.3942C5.00827 11.3866 6.28999 11.6554 7.27491 11.0834L7.02379 10.651ZM4.31815 1.61288L3.88449 1.86176C4.04496 2.14136 3.94855 2.49752 3.67372 2.65713L3.92484 3.0895L4.17596 3.52186C4.92902 3.08448 5.18479 2.11843 4.7518 1.36399L4.31815 1.61288ZM3.92484 3.0895L3.67372 2.65713C3.40066 2.81573 3.05012 2.72282 2.89064 2.44496L2.45699 2.69384L2.02333 2.94272C2.45731 3.69889 3.42113 3.96027 4.17596 3.52186L3.92484 3.0895ZM2.45699 2.69384L2.89064 2.44496C2.73018 2.16536 2.82659 1.8092 3.10141 1.64958L2.8503 1.21722L2.59918 0.784853C1.84611 1.22223 1.59035 2.18829 2.02333 2.94272L2.45699 2.69384ZM2.8503 1.21722L3.10141 1.64958C3.37448 1.49099 3.72502 1.58389 3.88449 1.86176L4.31815 1.61288L4.7518 1.36399C4.31783 0.607831 3.35401 0.346449 2.59918 0.784853L2.8503 1.21722ZM0.615955 5.61872L1.11096 5.54821C1.0211 4.91737 1.14206 4.28485 1.46367 3.76078L1.03752 3.49926L0.611365 3.23774C0.15968 3.97376 0.00052315 4.84381 0.120952 5.68923L0.615955 5.61872ZM5.55346 0.881466L5.56294 1.38138C6.19703 1.36935 6.80455 1.567 7.2789 1.95022L7.59312 1.56129L7.90733 1.17235C7.23726 0.63102 6.39634 0.365386 5.54398 0.381556L5.55346 0.881466Z" fill="#989898"/>
</svg>
