<svg width="14" height="14" viewBox="0 0 14 14" fill="none" xmlns="http://www.w3.org/2000/svg">
<path d="M9.9223 4.61477V2.82872L7.68976 0.596191H2.36637C1.5239 0.596191 0.840942 1.27915 0.840942 2.12161V11.0708C0.840942 11.9132 1.5239 12.5962 2.36637 12.5962H8.39687" stroke="#821A1E" stroke-miterlimit="10" stroke-linecap="round" stroke-linejoin="round"/>
<path d="M4.62752 3.26514C4.47592 3.04919 4.09467 2.88871 3.59639 3.03874C3.13886 3.17648 2.93382 3.90831 3.53059 4.18957C3.62423 4.23371 3.86418 4.32793 4.22621 4.45583C5.03649 4.7421 5.06311 5.80578 4.10146 5.88973C3.78102 5.9177 3.32407 5.83161 3.08095 5.52991" stroke="#821A1E" stroke-miterlimit="10" stroke-linecap="round" stroke-linejoin="round"/>
<path d="M3.91531 5.92322V6.17107" stroke="#821A1E" stroke-miterlimit="10" stroke-linecap="round" stroke-linejoin="round"/>
<path d="M3.91531 2.66797V2.9626" stroke="#821A1E" stroke-miterlimit="10" stroke-linecap="round" stroke-linejoin="round"/>
<path d="M2.90144 8.3783H6.48888" stroke="#821A1E" stroke-miterlimit="10" stroke-linecap="round" stroke-linejoin="round"/>
<path d="M2.90144 10.416H6.48888" stroke="#821A1E" stroke-miterlimit="10" stroke-linecap="round" stroke-linejoin="round"/>
<path d="M8.72713 6.81384H10.7134" stroke="#821A1E" stroke-miterlimit="10" stroke-linecap="round" stroke-linejoin="round"/>
<circle cx="8.72716" cy="8.76336" r="0.508474" fill="#821A1E"/>
<circle cx="10.7134" cy="8.76336" r="0.508474" fill="#821A1E"/>
<circle cx="8.72716" cy="10.6016" r="0.508474" fill="#821A1E"/>
<circle cx="10.7134" cy="10.6016" r="0.508474" fill="#821A1E"/>
<path d="M12.841 8.55724V6.34464C12.841 5.50217 12.158 4.81921 11.3155 4.81921H8.12514C7.28267 4.81921 6.59972 5.50217 6.59972 6.34464V11.0706C6.59972 11.9131 7.28267 12.596 8.12514 12.596H11.3155C12.1483 12.596 12.8252 11.9287 12.8407 11.0996" stroke="#821A1E" stroke-miterlimit="10" stroke-linecap="round" stroke-linejoin="round"/>
</svg>
