<svg width="14" height="14" viewBox="0 0 14 14" fill="none" xmlns="http://www.w3.org/2000/svg">
<path d="M10.6115 3.70574C11.0019 4.09593 11.0019 4.72974 10.6115 5.11994C10.2213 5.51014 9.5877 5.51014 9.1973 5.11994C8.8071 4.72974 8.8071 4.09596 9.1973 3.70574C9.5877 3.31554 10.2213 3.31554 10.6115 3.70574Z" stroke="#821A1E" stroke-miterlimit="10" stroke-linecap="round" stroke-linejoin="round"/>
<path d="M5.52052 7.38259L6.93471 8.79679L8.06589 7.66538C8.45649 7.27479 8.45649 6.6416 8.06589 6.2512C7.67549 5.8606 7.04231 5.8606 6.65171 6.2512L5.52052 7.38259Z" stroke="#821A1E" stroke-miterlimit="10" stroke-linecap="round" stroke-linejoin="round"/>
<path d="M8.06596 2.57427L4.3892 6.25127L8.06596 9.92825L11.7429 6.25127C13.4401 4.55429 12.7329 1.58429 12.7329 1.58429C12.7329 1.58429 9.76313 0.877287 8.06596 2.57427Z" stroke="#821A1E" stroke-miterlimit="10" stroke-linecap="round" stroke-linejoin="round"/>
<path d="M0.878967 13.4382L3.67893 10.6382" stroke="#821A1E" stroke-miterlimit="10" stroke-linecap="round" stroke-linejoin="round"/>
<path d="M0.878967 10.2382L2.47895 9.43823" stroke="#821A1E" stroke-miterlimit="10" stroke-linecap="round" stroke-linejoin="round"/>
<path d="M4.07059 13.4384L4.87898 11.8384" stroke="#821A1E" stroke-miterlimit="10" stroke-linecap="round" stroke-linejoin="round"/>
<path d="M4.95464 6.81678L3.54046 8.23096L6.08602 10.7765L7.5002 9.36234L4.95464 6.81678Z" stroke="#821A1E" stroke-miterlimit="10" stroke-linecap="round" stroke-linejoin="round"/>
<path d="M4.38918 6.2513H1.56078L4.53056 3.28149H7.35893L4.38918 6.2513Z" stroke="#821A1E" stroke-miterlimit="10" stroke-linecap="round" stroke-linejoin="round"/>
<path d="M8.06596 9.92825V12.7566L11.0359 9.78664V6.95825L8.06596 9.92825Z" stroke="#821A1E" stroke-miterlimit="10" stroke-linecap="round" stroke-linejoin="round"/>
</svg>
