<svg width="16" height="16" viewBox="0 0 16 16" fill="none" xmlns="http://www.w3.org/2000/svg">
<path d="M14.7788 4.81649C14.8206 4.96762 14.8428 5.1268 14.8428 5.29119V8.25806" stroke="#821A1E" stroke-miterlimit="10" stroke-linecap="round"/>
<path d="M14.8428 11.225C14.8428 12.2081 14.0458 13.0051 13.0627 13.0051H2.61929C1.63616 13.0051 0.839172 12.2081 0.839172 11.225V5.29128C0.839172 4.30815 1.63616 3.51116 2.61929 3.51116H6.7729" stroke="#821A1E" stroke-miterlimit="10" stroke-linecap="round"/>
<path d="M5.17082 15.375H10.5112" stroke="#821A1E" stroke-miterlimit="10" stroke-linecap="round" stroke-linejoin="round"/>
<path d="M7.84099 15.375V13.0015" stroke="#821A1E" stroke-miterlimit="10"/>
<path d="M8.69593 6.75305C8.30279 6.35834 7.79424 6.15519 7.28153 6.15181C6.75296 6.14831 6.21996 6.35661 5.80445 6.75305C4.86565 7.64871 5.26834 9.16585 3.65775 9.80382C3.65775 9.80382 4.70081 10.6021 5.98801 10.6021C7.00173 10.6021 7.89965 10.4555 8.69593 9.6561C9.4944 8.85445 9.4944 7.55469 8.69593 6.75305Z" stroke="#821A1E" stroke-miterlimit="10" stroke-linecap="round" stroke-linejoin="round"/>
<path d="M7.72234 5.97357L11.1235 1.86416C11.3161 1.59904 11.598 1.43711 11.8979 1.38961C12.1979 1.34211 12.516 1.40904 12.7811 1.60168C13.3114 1.98696 13.4289 2.72912 13.0436 3.25936L9.41345 7.63501" stroke="#821A1E" stroke-miterlimit="10" stroke-linecap="round"/>
</svg>
