<svg width="14" height="13" viewBox="0 0 14 13" fill="none" xmlns="http://www.w3.org/2000/svg">
<path d="M9.42411 12.0944L9.4243 10.0321C9.4244 8.89293 8.50097 7.96941 7.36182 7.96941H2.74331C1.60433 7.96941 0.680963 8.89267 0.680835 10.0317L0.680603 12.0944M13.0012 12.0945L13.0014 10.0322C13.0015 8.89304 12.078 7.96952 10.9389 7.96952M9.02685 1.49966C9.53334 1.87547 9.86159 2.47794 9.86159 3.15707C9.86159 3.83621 9.53334 4.43868 9.02685 4.81449M7.15785 3.15696C7.15785 4.29604 6.23445 5.21944 5.09538 5.21944C3.9563 5.21944 3.0329 4.29604 3.0329 3.15696C3.0329 2.01789 3.9563 1.09448 5.09538 1.09448C6.23445 1.09448 7.15785 2.01789 7.15785 3.15696Z" stroke="#821A1E" stroke-width="1.25" stroke-linecap="round" stroke-linejoin="round"/>
</svg>
