<svg width="14" height="17" viewBox="0 0 14 17" fill="none" xmlns="http://www.w3.org/2000/svg">
<path d="M9.48803 3.27128C9.48803 4.73219 8.30371 5.9165 6.8428 5.9165C5.38189 5.9165 4.19757 4.73219 4.19757 3.27128C4.19757 1.81036 5.38189 0.626047 6.8428 0.626047C8.30371 0.626047 9.48803 1.81036 9.48803 3.27128Z" stroke="#821A1E" stroke-miterlimit="10" stroke-linecap="round" stroke-linejoin="round"/>
<path d="M11.9776 11.5181H11.5108C11.339 11.5181 11.1996 11.3787 11.1996 11.2069V9.65085C11.1996 9.479 11.339 9.33964 11.5108 9.33964H11.9776C12.5792 9.33964 13.0669 9.8273 13.0669 10.4289C13.0669 11.0304 12.5792 11.5181 11.9776 11.5181Z" stroke="#821A1E" stroke-miterlimit="10" stroke-linecap="round" stroke-linejoin="round"/>
<path d="M1.70793 11.5181H2.17473C2.34658 11.5181 2.48593 11.3787 2.48593 11.2069V9.65085C2.48593 9.479 2.34658 9.33964 2.17473 9.33964H1.70793C1.10637 9.33964 0.618713 9.8273 0.618713 10.4289C0.618713 11.0304 1.10637 11.5181 1.70793 11.5181Z" stroke="#821A1E" stroke-miterlimit="10" stroke-linecap="round" stroke-linejoin="round"/>
<path d="M10.6346 7.6687C9.72124 6.59657 8.36153 5.91635 6.84273 5.91635C5.32396 5.91635 3.96422 6.59657 3.05093 7.6687" stroke="#821A1E" stroke-miterlimit="10" stroke-linecap="round" stroke-linejoin="round"/>
<path d="M11.8221 9.33967V7.22349L6.84282 9.09071V15.626L11.8221 13.7588V11.5181" stroke="#821A1E" stroke-miterlimit="10" stroke-linecap="round" stroke-linejoin="round"/>
<path d="M1.86349 11.5181V13.7588L6.84275 15.626V9.09071L1.86349 7.22349V9.33967" stroke="#821A1E" stroke-miterlimit="10" stroke-linecap="round" stroke-linejoin="round"/>
</svg>
