<svg width="20" height="20" viewBox="0 0 20 20" fill="none" xmlns="http://www.w3.org/2000/svg">
<path d="M0.25 18.9999C0.249953 19.4141 0.585702 19.75 0.999916 19.75C1.41413 19.75 1.74995 19.4143 1.75 19.0001L1 19L0.25 18.9999ZM1.00038 15.6246L1.75038 15.6247L1.00038 15.6246ZM11.125 13C11.5392 13 11.875 12.6642 11.875 12.25C11.875 11.8358 11.5392 11.5 11.125 11.5V12.25V13ZM18.4697 15.5928C18.7626 15.8857 19.2374 15.8857 19.5303 15.5928C19.8232 15.2999 19.8232 14.8251 19.5303 14.5322L19 15.0625L18.4697 15.5928ZM15.9506 10.9524C15.6577 10.6595 15.1828 10.6595 14.8899 10.9524C14.5971 11.2453 14.5971 11.7202 14.8899 12.0131L15.4203 11.4828L15.9506 10.9524ZM14.89 14.5321C14.5971 14.825 14.5971 15.2998 14.89 15.5927C15.1829 15.8856 15.6578 15.8856 15.9507 15.5927L15.4204 15.0624L14.89 14.5321ZM19.5304 12.013C19.8233 11.7201 19.8233 11.2452 19.5304 10.9523C19.2375 10.6595 18.7627 10.6595 18.4698 10.9523L19.0001 11.4827L19.5304 12.013ZM12.25 4.375H11.5C11.5 5.82475 10.3248 7 8.875 7V7.75V8.5C11.1532 8.5 13 6.65318 13 4.375H12.25ZM8.875 7.75V7C7.42525 7 6.25 5.82475 6.25 4.375H5.5H4.75C4.75 6.65317 6.59683 8.5 8.875 8.5V7.75ZM5.5 4.375H6.25C6.25 2.92525 7.42525 1.75 8.875 1.75V1V0.25C6.59683 0.25 4.75 2.09683 4.75 4.375H5.5ZM8.875 1V1.75C10.3248 1.75 11.5 2.92525 11.5 4.375H12.25H13C13 2.09682 11.1532 0.25 8.875 0.25V1ZM1 19L1.75 19.0001L1.75038 15.6247L1.00038 15.6246L0.250379 15.6245L0.25 18.9999L1 19ZM4.37538 12.25V11.5C2.09739 11.5 0.250636 13.3465 0.250379 15.6245L1.00038 15.6246L1.75038 15.6247C1.75054 14.1751 2.92575 13 4.37538 13V12.25ZM4.37538 12.25V13H11.125V12.25V11.5H4.37538V12.25ZM19 15.0625L19.5303 14.5322L17.7405 12.7423L17.2101 13.2726L16.6798 13.803L18.4697 15.5928L19 15.0625ZM17.2101 13.2726L17.7405 12.7423L15.9506 10.9524L15.4203 11.4828L14.8899 12.0131L16.6798 13.803L17.2101 13.2726ZM15.4204 15.0624L15.9507 15.5927L17.7405 13.803L17.2101 13.2726L16.6798 12.7423L14.89 14.5321L15.4204 15.0624ZM17.2101 13.2726L17.7405 13.803L19.5304 12.013L19.0001 11.4827L18.4698 10.9523L16.6798 12.7423L17.2101 13.2726Z" fill="black"/>
</svg>
