<svg width="12" height="12" viewBox="0 0 12 12" fill="none" xmlns="http://www.w3.org/2000/svg">
<path d="M7.48914 3.66846H10.0315C10.4995 3.66846 10.879 4.04789 10.879 4.51591V10.2786C10.879 10.7467 10.4995 11.1261 10.0315 11.1261H7.48914" stroke="#821A1E" stroke-miterlimit="10" stroke-linecap="round" stroke-linejoin="round"/>
<path d="M2.57388 11.1261V8.75317H4.2688V11.1261" stroke="#821A1E" stroke-miterlimit="10" stroke-linecap="round" stroke-linejoin="round"/>
<path d="M2.57388 7.05811H4.2688" stroke="#821A1E" stroke-miterlimit="10" stroke-linecap="round" stroke-linejoin="round"/>
<path d="M2.57388 5.36328H4.2688" stroke="#821A1E" stroke-miterlimit="10" stroke-linecap="round" stroke-linejoin="round"/>
<path d="M2.57388 3.66846H4.2688" stroke="#821A1E" stroke-miterlimit="10" stroke-linecap="round" stroke-linejoin="round"/>
<path d="M7.48914 7.05811H9.18405" stroke="#821A1E" stroke-miterlimit="10" stroke-linecap="round" stroke-linejoin="round"/>
<path d="M7.48914 5.36328H9.18405" stroke="#821A1E" stroke-miterlimit="10" stroke-linecap="round" stroke-linejoin="round"/>
<path d="M1.93263 1.15123L5.32246 1.99869C5.69085 2.09079 5.96371 2.42399 5.96371 2.82089V10.2785C5.96371 10.7465 5.58429 11.126 5.11626 11.126H1.72642C1.2584 11.126 0.878967 10.7465 0.878967 10.2785V1.97343C0.878967 1.5054 1.2584 1.12598 1.72642 1.12598C1.79755 1.12598 1.86662 1.13475 1.93263 1.15123Z" stroke="#821A1E" stroke-miterlimit="10" stroke-linecap="round" stroke-linejoin="round"/>
<path d="M7.48914 11.1261V8.75317H9.18405V11.1261" stroke="#821A1E" stroke-miterlimit="10" stroke-linecap="round" stroke-linejoin="round"/>
</svg>
