<svg width="14" height="14" viewBox="0 0 14 14" fill="none" xmlns="http://www.w3.org/2000/svg">
<path d="M12.2232 5.41714H11.1005C10.92 5.41714 10.7714 5.31781 10.7023 5.15115C10.6332 4.98447 10.6683 4.80893 10.7956 4.68136L11.5894 3.88782C11.706 3.77115 11.7703 3.6158 11.7703 3.45091C11.7703 3.28582 11.706 3.1307 11.5894 3.01381L10.5776 2.00205C10.3443 1.7687 9.93739 1.76827 9.70361 2.00205L8.91005 2.79559C8.80451 2.90115 8.68849 2.92314 8.6096 2.92314C8.49851 2.92314 8.38805 2.87959 8.30651 2.80336C8.24629 2.74692 8.17429 2.64691 8.17429 2.49091V1.36826C8.17429 1.02761 7.89717 0.750488 7.55651 0.750488H6.12537C5.78472 0.750488 5.5076 1.02761 5.5076 1.36826V2.49091C5.5076 2.76158 5.28605 2.92314 5.07184 2.92314C4.99317 2.92314 4.87718 2.90093 4.77162 2.79559L3.97805 2.00205C3.74427 1.76827 3.33739 1.7687 3.10406 2.00205L2.09228 3.01381C1.97561 3.13047 1.91138 3.28582 1.91138 3.45091C1.91138 3.6158 1.97561 3.77093 2.09228 3.88782L2.88605 4.68136C3.01339 4.80893 3.04827 4.98447 2.97938 5.15115C2.91049 5.31781 2.76184 5.41714 2.58139 5.41714H1.45872C1.11806 5.41714 0.840942 5.69426 0.840942 6.03492V7.46558C0.840942 7.80649 1.11806 8.08381 1.45872 8.08381H2.58139C2.76184 8.08381 2.91049 8.18314 2.97961 8.3498C3.04872 8.51648 3.01361 8.69205 2.88627 8.81959L2.0925 9.61316C1.97581 9.72982 1.91161 9.88515 1.91161 10.05C1.91161 10.2152 1.97581 10.3703 2.0925 10.4871L3.10429 11.4989C3.33781 11.7325 3.74449 11.7329 3.97827 11.4989L4.77184 10.7054C4.87737 10.5998 4.99339 10.5778 5.07226 10.5778C5.28627 10.5778 5.50782 10.7396 5.50782 11.01V12.1325C5.5076 12.4731 5.78472 12.7505 6.12537 12.7505H7.55626C7.89694 12.7505 8.17406 12.4731 8.17406 12.1325V11.01C8.17406 10.7394 8.39562 10.5778 8.6096 10.5778C8.68827 10.5778 8.80451 10.6 8.91005 10.7054L9.70361 11.4989C9.93739 11.7327 10.3443 11.7323 10.5776 11.4989L11.5894 10.4871C11.706 10.3705 11.7703 10.2152 11.7703 10.05C11.7703 9.88515 11.706 9.73002 11.5894 9.61316L10.7956 8.81959C10.6683 8.69205 10.6334 8.51648 10.7023 8.3498C10.7712 8.18314 10.92 8.08381 11.1005 8.08381H12.2232C12.5638 8.08381 12.8409 7.80649 12.8409 7.46581V6.03492C12.8409 5.69426 12.5638 5.41714 12.2232 5.41714Z" stroke="#821A1E" stroke-miterlimit="10"/>
<path d="M4.56656 8.34985L5.45799 6.72769C5.58895 6.48938 5.88783 6.40165 6.12683 6.53136L7.06707 7.0417C7.30368 7.17012 7.59955 7.08552 7.73252 6.85142L8.69889 5.18193" stroke="#821A1E" stroke-miterlimit="10" stroke-linecap="round"/>
<path d="M9.11532 6.12402L8.76082 5.25915C8.73038 5.18486 8.65307 5.14104 8.57368 5.15307L7.62274 5.29717" stroke="#821A1E" stroke-miterlimit="10" stroke-linecap="round"/>
</svg>
