<svg width="16" height="16" viewBox="0 0 16 16" fill="none" xmlns="http://www.w3.org/2000/svg">
<path d="M0.840942 12.4487V3.44458C0.840942 2.96335 1.23108 2.57321 1.71231 2.57321H2.58368V11.5774H1.71231C1.23108 11.5774 0.840942 11.9675 0.840942 12.4487Z" stroke="#821A1E" stroke-width="0.8" stroke-miterlimit="10" stroke-linecap="round" stroke-linejoin="round"/>
<path d="M13.9696 15.0627H10.7746V13.32H13.9696C14.4509 13.32 14.841 13.7101 14.841 14.1914C14.841 14.6726 14.4509 15.0627 13.9696 15.0627Z" stroke="#821A1E" stroke-width="0.8" stroke-miterlimit="10" stroke-linecap="round" stroke-linejoin="round"/>
<path d="M6.3887 9.83441V10.7058C6.3887 11.187 6.77884 11.5771 7.26007 11.5771H8.4219C8.90313 11.5771 9.29327 11.187 9.29327 10.7058V9.83441H6.3887Z" stroke="#821A1E" stroke-width="0.8" stroke-miterlimit="10" stroke-linecap="round" stroke-linejoin="round"/>
<path d="M7.84094 9.83447V7.51082" stroke="#821A1E" stroke-width="0.8" stroke-miterlimit="10" stroke-linecap="round" stroke-linejoin="round"/>
<path d="M8.71236 6.63962L7.84099 7.51099L6.96962 6.63962" stroke="#821A1E" stroke-width="0.8" stroke-miterlimit="10" stroke-linecap="round" stroke-linejoin="round"/>
<path d="M7.84094 1.64355V1.06264" stroke="#821A1E" stroke-width="0.8" stroke-miterlimit="10" stroke-linecap="round" stroke-linejoin="round"/>
<path d="M5.51717 2.26636L5.22672 1.76326" stroke="#821A1E" stroke-width="0.8" stroke-miterlimit="10" stroke-linecap="round" stroke-linejoin="round"/>
<path d="M10.1648 2.26636L10.4552 1.76326" stroke="#821A1E" stroke-width="0.8" stroke-miterlimit="10" stroke-linecap="round" stroke-linejoin="round"/>
<path d="M2.58371 4.31592H5.76836" stroke="#821A1E" stroke-width="0.8" stroke-miterlimit="10" stroke-linecap="round" stroke-linejoin="round"/>
<path d="M9.91355 4.31589H13.9696C14.4508 4.31589 14.8409 4.706 14.8409 5.18726V14.1914C14.8409 13.7101 14.4508 13.32 13.9696 13.32H1.71231C1.23108 13.32 0.840942 12.9299 0.840942 12.4487V4.31589" stroke="#821A1E" stroke-width="0.8" stroke-miterlimit="10" stroke-linecap="round" stroke-linejoin="round"/>
<path d="M4.93633 6.349C4.93633 7.1969 5.30062 7.95853 5.88045 8.48893C6.19354 8.77529 6.38861 9.16764 6.38861 9.59194V9.83447H9.29317V9.59194C9.29317 9.16764 9.48824 8.77529 9.80132 8.48893C10.3812 7.95853 10.7455 7.1969 10.7455 6.349" stroke="#821A1E" stroke-width="0.8" stroke-miterlimit="10" stroke-linecap="round" stroke-linejoin="round"/>
<path d="M10.7455 6.34912C10.7455 4.74496 9.44505 3.44456 7.84089 3.44456C6.23673 3.44456 4.93633 4.74496 4.93633 6.34912" stroke="#821A1E" stroke-width="0.8" stroke-miterlimit="10" stroke-linecap="round" stroke-linejoin="round"/>
</svg>
