<svg width="12" height="13" viewBox="0 0 12 13" fill="none" xmlns="http://www.w3.org/2000/svg">
<path d="M3.45447 10.2942H8.63907" stroke="#821A1E" stroke-miterlimit="10" stroke-linecap="round" stroke-linejoin="round"/>
<path d="M3.45447 8.58081H8.63907" stroke="#821A1E" stroke-miterlimit="10" stroke-linecap="round" stroke-linejoin="round"/>
<path d="M10.5749 11.9382H1.51861C1.39263 11.9382 1.29053 11.8361 1.29053 11.7102V6.93684H10.803V11.7102C10.803 11.8361 10.7008 11.9382 10.5749 11.9382Z" stroke="#821A1E" stroke-miterlimit="10" stroke-linecap="round" stroke-linejoin="round"/>
<path d="M10.803 6.93677H1.29053V5.03568H10.5749C10.7008 5.03568 10.803 5.13779 10.803 5.26376V6.93677Z" stroke="#821A1E" stroke-miterlimit="10" stroke-linecap="round" stroke-linejoin="round"/>
<path d="M10.2991 2.78979L1.29054 5.03589L0.885801 3.41257C0.855311 3.29036 0.92971 3.16657 1.05192 3.13611L9.83921 0.945189C9.96142 0.9147 10.0852 0.989098 10.1157 1.11131L10.4652 2.51333C10.4957 2.63554 10.4213 2.75932 10.2991 2.78979Z" stroke="#821A1E" stroke-miterlimit="10" stroke-linecap="round" stroke-linejoin="round"/>
<path d="M3.74545 4.42383L4.34778 2.31438" stroke="#821A1E" stroke-miterlimit="10" stroke-linecap="round" stroke-linejoin="round"/>
<path d="M7.00322 3.61133L7.60553 1.50188" stroke="#821A1E" stroke-miterlimit="10" stroke-linecap="round" stroke-linejoin="round"/>
<path d="M3.82065 6.93677L4.9154 5.03568" stroke="#821A1E" stroke-miterlimit="10" stroke-linecap="round" stroke-linejoin="round"/>
<path d="M7.17812 6.93677L8.27287 5.03568" stroke="#821A1E" stroke-miterlimit="10" stroke-linecap="round" stroke-linejoin="round"/>
</svg>
