<svg width="19" height="19" viewBox="0 0 19 19" fill="none" xmlns="http://www.w3.org/2000/svg">
<path d="M0.25 18.0409C0.249953 18.4551 0.585702 18.7909 0.999916 18.7909C1.41413 18.791 1.74995 18.4552 1.75 18.041L1 18.0409L0.25 18.0409ZM1.00036 14.8156L1.75036 14.8157L1.00036 14.8156ZM10.1375 12.3409C10.5517 12.3409 10.8875 12.0052 10.8875 11.5909C10.8875 11.1767 10.5517 10.8409 10.1375 10.8409V11.5909V12.3409ZM18.2 13.4159C18.6142 13.4159 18.95 13.0802 18.95 12.6659C18.95 12.2517 18.6142 11.9159 18.2 11.9159V12.6659V13.4159ZM13.3625 11.9159C12.9483 11.9159 12.6125 12.2517 12.6125 12.6659C12.6125 13.0802 12.9483 13.4159 13.3625 13.4159V12.6659V11.9159ZM15.0313 15.0846C15.0313 15.4988 15.367 15.8346 15.7813 15.8346C16.1955 15.8346 16.5313 15.4988 16.5313 15.0846H15.7813H15.0313ZM16.5313 10.2471C16.5313 9.83285 16.1955 9.49707 15.7813 9.49707C15.367 9.49707 15.0313 9.83285 15.0313 10.2471H15.7813H16.5313ZM11.75 4.06594H11C11 5.43285 9.8919 6.54094 8.525 6.54094V7.29094V8.04094C10.7203 8.04094 12.5 6.26127 12.5 4.06594H11.75ZM8.525 7.29094V6.54094C7.15809 6.54094 6.05 5.43285 6.05 4.06594H5.3H4.55C4.55 6.26127 6.32967 8.04094 8.525 8.04094V7.29094ZM5.3 4.06594H6.05C6.05 2.69904 7.15809 1.59094 8.525 1.59094V0.840942V0.0909424C6.32967 0.0909424 4.55 1.87061 4.55 4.06594H5.3ZM8.525 0.840942V1.59094C9.8919 1.59094 11 2.69904 11 4.06594H11.75H12.5C12.5 1.87061 10.7203 0.0909424 8.525 0.0909424V0.840942ZM1 18.0409L1.75 18.041L1.75036 14.8157L1.00036 14.8156L0.250363 14.8155L0.25 18.0409L1 18.0409ZM4.22536 11.5909V10.8409C2.03021 10.8409 0.250609 12.6203 0.250363 14.8155L1.00036 14.8156L1.75036 14.8157C1.75052 13.4489 2.85857 12.3409 4.22536 12.3409V11.5909ZM4.22536 11.5909V12.3409H10.1375V11.5909V10.8409H4.22536V11.5909ZM18.2 12.6659V11.9159H15.7813V12.6659V13.4159H18.2V12.6659ZM15.7813 12.6659V11.9159H13.3625V12.6659V13.4159H15.7813V12.6659ZM15.7813 15.0846H16.5313V12.6659H15.7813H15.0313V15.0846H15.7813ZM15.7813 12.6659H16.5313V10.2471H15.7813H15.0313V12.6659H15.7813Z" fill="white"/>
</svg>
