<svg width="21" height="21" viewBox="0 0 21 21" fill="none" xmlns="http://www.w3.org/2000/svg">
<path fill-rule="evenodd" clip-rule="evenodd" d="M12.1763 2.87877C11.7488 1.12374 9.25121 1.12374 8.8237 2.87877C8.75987 3.14249 8.63468 3.38742 8.45831 3.59362C8.28194 3.79982 8.05938 3.96147 7.80874 4.06541C7.5581 4.16934 7.28646 4.21264 7.01592 4.19177C6.74538 4.17089 6.4836 4.08644 6.25187 3.94529C4.70832 3.00477 2.94201 4.77105 3.88254 6.31457C4.49006 7.31134 3.95117 8.61186 2.81713 8.88749C1.06096 9.31387 1.06096 11.8125 2.81713 12.2378C3.08093 12.3017 3.3259 12.427 3.53211 12.6035C3.73831 12.78 3.89991 13.0027 4.00375 13.2535C4.1076 13.5043 4.15074 13.776 4.12968 14.0466C4.10862 14.3172 4.02394 14.579 3.88254 14.8107C2.94201 16.3542 4.70832 18.1205 6.25187 17.18C6.48356 17.0386 6.74536 16.9539 7.01597 16.9329C7.28658 16.9118 7.55834 16.9549 7.80912 17.0588C8.0599 17.1626 8.2826 17.3242 8.45911 17.5304C8.63561 17.7366 8.76091 17.9816 8.82482 18.2454C9.25121 20.0015 11.7499 20.0015 12.1752 18.2454C12.2393 17.9817 12.3647 17.7369 12.5413 17.5309C12.7178 17.3248 12.9405 17.1633 13.1912 17.0595C13.4419 16.9557 13.7135 16.9125 13.9841 16.9334C14.2546 16.9544 14.5164 17.0389 14.7481 17.18C16.2917 18.1205 18.058 16.3542 17.1175 14.8107C16.9763 14.579 16.8918 14.3172 16.8709 14.0467C16.85 13.7761 16.8932 13.5045 16.997 13.2538C17.1008 13.0031 17.2623 12.7804 17.4683 12.6039C17.6744 12.4273 17.9192 12.3019 18.1829 12.2378C19.939 11.8114 19.939 9.31275 18.1829 8.88749C17.9191 8.82358 17.6741 8.69828 17.4679 8.52178C17.2617 8.34528 17.1001 8.12257 16.9962 7.8718C16.8924 7.62103 16.8493 7.34927 16.8703 7.07867C16.8914 6.80806 16.9761 6.54626 17.1175 6.31457C18.058 4.77105 16.2917 3.00477 14.7481 3.94529C14.5164 4.08668 14.2546 4.17136 13.984 4.19242C13.7134 4.21348 13.4417 4.17034 13.1909 4.0665C12.9401 3.96266 12.7174 3.80106 12.5409 3.59486C12.3644 3.38866 12.2391 3.14369 12.1752 2.8799L12.1763 2.87877Z" stroke="white" stroke-width="2"/>
<path d="M12.5 10.5625C12.5 11.6671 11.6046 12.5625 10.5 12.5625C9.39543 12.5625 8.5 11.6671 8.5 10.5625C8.5 9.45793 9.39543 8.5625 10.5 8.5625C11.6046 8.5625 12.5 9.45793 12.5 10.5625Z" stroke="white" stroke-width="2"/>
</svg>
