<svg width="16" height="16" viewBox="0 0 16 16" fill="none" xmlns="http://www.w3.org/2000/svg">
<path d="M7.60326 7.50742L5.23038 9.28708C5.13129 9.36138 5.00819 9.40543 4.87481 9.40543C4.54717 9.40543 4.28159 9.13985 4.28159 8.81221V5.25289C4.28159 4.92525 4.54717 4.65967 4.87481 4.65967C5.00819 4.65967 5.13131 4.70369 5.23038 4.77802L7.60326 6.55768C7.74754 6.66588 7.84091 6.83833 7.84091 7.03255C7.84091 7.22677 7.74756 7.39922 7.60326 7.50742Z" stroke="#821A1E" stroke-miterlimit="10" stroke-linecap="round" stroke-linejoin="round"/>
<path d="M10.0952 2.28687H2.6206C1.63773 2.28687 0.840942 3.08365 0.840942 4.06653V9.99873C0.840942 10.9816 1.63773 11.7784 2.6206 11.7784H10.0952" stroke="#821A1E" stroke-miterlimit="10" stroke-linecap="round" stroke-linejoin="round"/>
<path d="M12.4681 2.28687H13.0613C14.0442 2.28687 14.841 3.08365 14.841 4.06653V9.99873C14.841 10.9816 14.0442 11.7784 13.0613 11.7784H12.4681" stroke="#821A1E" stroke-miterlimit="10" stroke-linecap="round" stroke-linejoin="round"/>
<path d="M10.0952 1.21899V12.8461" stroke="#821A1E" stroke-miterlimit="10" stroke-linecap="round" stroke-linejoin="round"/>
<path d="M0.840942 15.219H3.09518" stroke="#821A1E" stroke-miterlimit="10" stroke-linecap="round" stroke-linejoin="round"/>
<path d="M4.87483 14.0325H6.06127" stroke="#821A1E" stroke-miterlimit="10" stroke-linecap="round" stroke-linejoin="round"/>
<path d="M7.84094 15.219H10.0952" stroke="#821A1E" stroke-miterlimit="10" stroke-linecap="round" stroke-linejoin="round"/>
<path d="M12.4681 14.0325H14.841" stroke="#821A1E" stroke-miterlimit="10" stroke-linecap="round" stroke-linejoin="round"/>
</svg>
